<?xml version="1.0" standalone="no"?>
<!DOCTYPE svg PUBLIC "-//W3C//DTD SVG 20010904//EN"
 "http://www.w3.org/TR/2001/REC-SVG-20010904/DTD/svg10.dtd">
<svg version="1.0" xmlns="http://www.w3.org/2000/svg"
 width="8000.000000pt" height="8000.000000pt" viewBox="0 0 8000.000000 8000.000000"
 preserveAspectRatio="xMidYMid meet">

<g transform="translate(0.000000,8000.000000) scale(0.100000,-0.100000)"
fill="#000000" stroke="none">
<path d="M30850 72733 c-63 -2 -4831 -113 -10595 -248 -5764 -134 -10637 -249
-10830 -255 -192 -5 -403 -17 -469 -25 -1022 -131 -1931 -775 -2356 -1670
-113 -238 -189 -484 -231 -751 -19 -122 -22 -191 -26 -559 -6 -628 -71 -21853
-66 -21905 38 -463 120 -768 305 -1133 373 -737 1071 -1251 1928 -1421 301
-60 330 -61 1230 -59 1092 2 6207 31 6665 37 389 6 489 14 664 52 832 185
1484 906 1665 1841 39 205 49 341 43 597 -12 495 -101 862 -422 1741 -270 738
-359 1030 -415 1359 -138 811 119 1421 804 1909 109 77 330 195 471 250 194
77 483 147 690 167 810 79 1608 -191 2140 -725 256 -256 413 -559 481 -930 27
-141 27 -535 1 -720 -55 -389 -139 -686 -394 -1395 -283 -785 -372 -1108 -419
-1510 -20 -181 -15 -558 11 -720 121 -765 532 -1362 1154 -1675 164 -82 378
-144 606 -175 153 -21 681 -21 3879 -1 1771 11 3223 18 3227 15 16 -10 755 16
899 31 458 49 779 136 1110 301 579 290 1041 752 1320 1319 144 293 223 549
266 860 18 137 19 953 5 5265 -5 1274 -4 2369 1 2435 16 225 61 391 160 590
140 281 380 510 648 620 341 139 824 105 1475 -105 88 -29 347 -119 575 -200
473 -168 694 -241 906 -300 732 -200 1407 -223 1974 -66 434 119 872 379 1210
716 523 524 858 1241 957 2050 24 203 24 657 0 860 -100 813 -427 1511 -957
2040 -229 230 -429 376 -695 511 -628 317 -1335 369 -2155 158 -270 -70 -511
-150 -1050 -347 -555 -203 -793 -280 -1060 -340 -683 -155 -1148 -47 -1551
360 -268 272 -429 638 -464 1058 -3 36 -10 1696 -15 3690 -6 2133 -15 3699
-21 3805 -24 434 -93 709 -265 1055 -274 550 -707 984 -1249 1250 -496 244
-924 315 -1765 293z m458 -834 c274 -29 573 -127 769 -249 108 -68 284 -203
372 -286 270 -254 494 -665 570 -1044 50 -251 46 16 61 -4685 6 -1985 14
-3136 20 -3200 58 -558 266 -1023 630 -1408 357 -377 801 -596 1375 -679 139
-20 666 -17 825 5 484 67 785 149 1485 404 780 284 1111 382 1430 424 133 17
382 15 495 -5 257 -45 448 -128 693 -303 100 -72 307 -271 394 -378 434 -538
667 -1311 614 -2040 -50 -682 -259 -1199 -675 -1669 -104 -117 -304 -274 -431
-338 -80 -41 -252 -95 -355 -113 -139 -23 -353 -30 -515 -16 -346 30 -656 107
-1168 287 -956 338 -1379 460 -1802 518 -824 113 -1536 -58 -2100 -504 -106
-84 -294 -274 -377 -380 -287 -370 -455 -779 -498 -1215 -6 -66 -6 -1351 2
-3805 9 -2867 8 -3734 -1 -3833 -27 -290 -80 -478 -206 -732 -115 -230 -267
-423 -456 -582 -134 -112 -226 -171 -377 -244 -145 -70 -371 -134 -527 -149
-57 -6 -1510 -18 -3380 -30 -3665 -22 -4323 -24 -4410 -11 -189 28 -392 146
-566 329 -146 154 -256 343 -330 570 -133 411 -133 807 2 1345 45 180 116 399
278 861 254 721 333 980 401 1316 60 299 74 436 74 720 0 263 -12 381 -60 598
-54 244 -173 522 -311 732 -266 403 -681 759 -1169 1003 -565 283 -1285 427
-1947 389 -251 -14 -403 -33 -626 -78 -723 -146 -1355 -465 -1840 -930 -461
-442 -741 -959 -827 -1529 -24 -162 -25 -526 -1 -710 53 -396 151 -739 422
-1470 434 -1169 515 -1626 390 -2215 -41 -193 -160 -470 -261 -606 -185 -251
-373 -366 -619 -379 -156 -8 -7208 -48 -7495 -42 -325 7 -432 26 -675 120
-261 100 -464 237 -676 454 -281 286 -455 615 -546 1026 l-27 122 -3 765 c-4
702 51 19515 61 20985 2 393 8 673 15 725 65 490 277 908 614 1208 280 250
619 403 957 432 127 11 642 24 2695 71 1287 29 19411 455 19483 458 18 0 76
-4 130 -10z"/>
<path d="M13992 69870 c-2976 -105 -4221 -151 -4242 -160 -117 -49 -168 -246
-73 -289 13 -6 69 -11 124 -11 155 0 8449 289 8489 296 55 9 125 87 141 157
24 109 -24 158 -151 156 -41 -1 -1971 -68 -4288 -149z"/>
<path d="M11955 67958 c-2536 -89 -2560 -90 -2605 -112 -117 -58 -150 -244
-51 -286 23 -9 588 8 2677 80 1537 52 2666 95 2689 101 54 15 118 82 134 142
18 62 8 110 -30 141 -29 25 -36 26 -142 25 -62 -1 -1264 -42 -2672 -91z"/>
<path d="M48130 72729 c-589 -61 -1143 -289 -1610 -663 -122 -98 -335 -312
-439 -441 -310 -385 -509 -819 -590 -1287 -43 -248 -44 -304 -32 -2038 6 -905
15 -2590 21 -3745 6 -1155 15 -2174 20 -2265 11 -181 26 -266 72 -410 169
-530 620 -972 1245 -1219 200 -79 428 -136 670 -167 176 -23 549 -23 738 0
475 58 761 136 1656 452 678 239 996 332 1301 380 140 22 423 23 543 1 354
-64 601 -202 906 -506 519 -518 791 -1213 791 -2021 0 -409 -60 -727 -209
-1105 -127 -322 -277 -556 -513 -799 -237 -244 -481 -373 -785 -416 -297 -41
-624 -13 -1010 85 -230 59 -386 110 -880 290 -770 280 -1073 367 -1510 432
-186 28 -719 25 -905 -4 -622 -98 -1113 -330 -1487 -702 -288 -285 -476 -620
-543 -968 -45 -229 -44 -179 -22 -4048 12 -2018 24 -3728 28 -3800 24 -549
153 -1005 398 -1409 430 -706 1222 -1197 2084 -1292 160 -17 1141 -18 5185 -5
1389 5 2486 5 2534 0 220 -23 437 -103 623 -230 437 -300 669 -757 670 -1319
0 -396 -80 -738 -356 -1512 -311 -873 -405 -1196 -463 -1588 -63 -422 -51
-858 33 -1185 183 -719 717 -1325 1511 -1715 423 -208 862 -327 1364 -371 199
-17 664 -6 861 20 744 101 1391 373 1950 819 119 96 384 359 474 472 168 210
332 494 421 730 53 137 111 374 131 530 22 176 15 529 -15 730 -62 424 -144
707 -436 1505 -326 891 -426 1317 -412 1745 7 193 25 305 73 450 152 460 496
793 940 911 l119 32 1705 8 c938 5 2666 13 3840 19 1304 5 2170 13 2225 19
415 47 680 120 1013 281 630 305 1102 758 1382 1325 145 293 216 539 260 895
30 241 25 521 -169 8780 -105 4469 -216 9185 -246 10480 -71 3048 -73 3155
-86 3285 -64 660 -319 1214 -764 1659 -464 464 -1076 748 -1768 821 -186 19
-104 19 -12022 56 -10015 31 -10381 31 -10515 18z m11670 -859 c7023 -20
10476 -33 10560 -41 247 -21 438 -73 655 -178 403 -196 726 -526 926 -946 60
-125 132 -338 158 -470 42 -208 39 -141 91 -2440 68 -3003 450 -19293 459
-19565 21 -633 -23 -907 -204 -1285 -210 -438 -631 -800 -1081 -929 -247 -71
52 -65 -4009 -76 -2164 -6 -3746 -14 -3855 -20 -214 -12 -334 -28 -515 -72
-635 -152 -1213 -549 -1548 -1063 -377 -578 -465 -1214 -281 -2033 71 -318
151 -564 372 -1152 232 -618 330 -933 381 -1230 96 -560 14 -1030 -245 -1412
-281 -413 -738 -737 -1246 -882 -483 -138 -909 -149 -1403 -35 -471 109 -861
323 -1196 658 -351 352 -510 761 -510 1321 -1 217 18 396 66 635 62 309 117
489 333 1090 291 812 378 1127 433 1580 19 152 16 496 -5 640 -42 293 -129
546 -273 793 -355 612 -969 1007 -1748 1124 -102 15 -1386 17 -5425 8 l-2295
-5 -130 23 c-286 51 -554 168 -793 347 -374 278 -635 665 -741 1095 -45 185
-60 308 -71 575 -14 329 -51 7385 -39 7499 35 356 160 594 416 792 286 220
696 308 1138 243 323 -47 521 -102 1188 -334 733 -254 1009 -337 1352 -408
1135 -237 2044 -10 2764 688 414 402 708 901 870 1475 232 827 187 1716 -124
2444 -185 434 -433 797 -762 1116 -664 646 -1457 867 -2453 684 -345 -64 -659
-158 -1340 -404 -946 -341 -1379 -443 -1751 -410 -649 56 -1148 393 -1299 875
-52 169 -48 -54 -73 4000 -13 2114 -20 3839 -15 3915 20 334 106 646 252 909
82 148 257 361 392 476 293 251 630 392 989 414 66 4 363 5 660 4 297 -2 5236
-17 10975 -33z"/>
<path d="M68599 69891 c-44 -14 -73 -32 -112 -70 -58 -54 -67 -78 -67 -178 0
-256 181 -5254 191 -5276 13 -28 48 -47 87 -47 65 1 168 72 203 143 l20 39
-91 2641 c-50 1453 -93 2656 -96 2674 -10 63 -68 95 -135 74z"/>
<path d="M70413 69484 c-63 -31 -118 -90 -133 -141 -8 -29 24 -1040 139 -4313
82 -2351 152 -4283 156 -4293 12 -29 62 -50 104 -42 86 16 180 93 201 165 12
41 -286 8583 -300 8610 -25 47 -91 53 -167 14z"/>
<path d="M20180 42863 c-123 -10 -381 -47 -515 -74 -602 -123 -1153 -378
-1625 -753 -142 -113 -393 -360 -494 -486 -167 -210 -332 -495 -421 -730 -44
-114 -98 -318 -122 -455 -25 -146 -25 -589 0 -770 60 -424 158 -770 422 -1485
343 -931 446 -1362 432 -1800 -7 -193 -25 -305 -73 -450 -152 -460 -496 -793
-940 -911 l-119 -32 -1700 -8 c-935 -5 -2663 -13 -3840 -19 -1308 -5 -2175
-13 -2230 -19 -416 -47 -680 -120 -1013 -281 -630 -305 -1102 -758 -1382
-1325 -145 -293 -216 -539 -260 -895 -30 -244 -26 -464 224 -11130 285 -12150
263 -11274 277 -11415 64 -660 319 -1214 764 -1659 463 -463 1079 -749 1766
-820 196 -20 362 -21 12239 -58 7645 -23 10139 -28 10245 -20 378 31 725 124
1060 286 325 157 555 318 814 571 436 426 720 957 820 1537 43 248 44 304 32
2038 -6 905 -15 2595 -21 3755 -6 1161 -15 2179 -20 2262 -16 244 -58 408
-160 618 -184 379 -491 677 -927 901 -267 137 -568 227 -898 270 -178 23 -550
23 -740 0 -475 -58 -761 -136 -1656 -452 -678 -239 -996 -332 -1301 -380 -140
-22 -423 -23 -543 -1 -354 64 -601 202 -906 506 -519 518 -791 1213 -791 2021
0 409 60 727 209 1105 127 322 277 556 513 799 237 244 481 373 785 416 297
41 624 13 1010 -85 230 -59 386 -110 880 -290 770 -280 1073 -367 1510 -432
186 -28 719 -25 905 4 622 98 1113 330 1487 702 288 285 476 620 543 968 45
229 44 179 22 4048 -12 2019 -24 3729 -28 3800 -24 550 -153 1005 -398 1409
-430 706 -1222 1197 -2084 1292 -160 17 -1128 18 -5175 5 -1400 -5 -2495 -5
-2544 0 -220 23 -437 103 -623 230 -437 299 -669 757 -670 1319 0 396 80 738
356 1512 311 873 405 1196 463 1588 63 422 51 858 -33 1185 -183 719 -717
1325 -1511 1715 -418 205 -853 325 -1345 369 -105 10 -562 12 -670 4z m361
-833 c699 -71 1207 -296 1640 -729 351 -352 510 -762 510 -1321 1 -217 -18
-396 -66 -635 -62 -309 -117 -489 -333 -1090 -291 -812 -378 -1129 -433 -1580
-16 -134 -16 -486 0 -605 54 -396 181 -714 410 -1030 88 -122 261 -304 376
-397 340 -275 761 -453 1240 -525 102 -15 1386 -17 5425 -8 l2295 5 130 -23
c284 -51 551 -167 792 -345 371 -275 636 -667 742 -1097 45 -185 60 -308 71
-575 14 -330 51 -7386 39 -7499 -35 -356 -160 -594 -416 -792 -286 -220 -696
-308 -1138 -243 -323 47 -521 102 -1188 334 -733 254 -1009 337 -1352 408
-1171 244 -2104 -5 -2831 -756 -449 -464 -740 -1031 -873 -1702 -165 -831 -64
-1651 290 -2358 172 -342 391 -640 666 -907 664 -646 1457 -867 2453 -684 291
54 635 153 1076 310 803 286 951 335 1239 409 339 87 558 114 776 95 649 -56
1148 -393 1299 -875 52 -169 48 54 73 -4000 13 -2116 20 -3839 15 -3915 -20
-334 -106 -646 -252 -909 -83 -150 -255 -359 -394 -478 -292 -251 -631 -391
-992 -411 -203 -12 -22044 56 -22190 69 -247 21 -438 73 -655 178 -403 196
-726 526 -926 946 -60 125 -132 338 -158 470 -42 208 -39 142 -91 2440 -68
3008 -450 19293 -459 19565 -21 633 23 907 204 1285 210 438 631 800 1081 929
247 71 -52 65 4009 76 2164 6 3746 14 3855 20 214 12 334 28 515 72 635 152
1212 548 1548 1063 377 578 465 1214 281 2033 -71 318 -151 564 -372 1152 -88
234 -185 504 -217 600 -266 812 -271 1371 -17 1877 120 238 336 483 605 684
373 280 870 449 1387 472 154 7 214 6 311 -3z"/>
<path d="M9289 19296 c-84 -30 -151 -92 -169 -156 -12 -41 286 -8583 300
-8610 50 -93 262 -4 300 127 8 29 -24 1036 -139 4313 -82 2351 -152 4283 -156
4293 -8 20 -55 47 -82 47 -10 -1 -34 -7 -54 -14z"/>
<path d="M11234 15661 c-55 -25 -111 -76 -135 -124 l-20 -39 91 -2641 c50
-1453 93 -2656 96 -2674 8 -55 35 -78 91 -77 57 1 104 23 156 73 58 54 67 78
67 179 0 255 -181 5253 -191 5275 -22 48 -86 60 -155 28z"/>
<path d="M69820 35294 c-113 -2 -1501 -10 -3085 -18 -3112 -17 -3451 -20
-3595 -36 -924 -104 -1677 -859 -1874 -1877 -39 -205 -49 -341 -43 -597 12
-494 102 -866 422 -1741 218 -597 299 -844 365 -1115 131 -544 112 -967 -59
-1359 -158 -359 -524 -725 -935 -937 -228 -116 -413 -181 -682 -238 -409 -85
-937 -57 -1339 71 -580 185 -1058 536 -1307 959 -97 166 -176 382 -214 589
-27 142 -27 535 -1 720 55 387 141 693 394 1395 282 781 373 1112 419 1510 20
181 15 558 -11 720 -120 760 -524 1352 -1136 1665 -175 90 -387 152 -624 185
-154 21 -673 21 -3874 1 -1773 -11 -3228 -18 -3232 -15 -16 10 -756 -16 -899
-31 -458 -49 -779 -136 -1110 -301 -579 -290 -1041 -752 -1320 -1319 -144
-293 -223 -549 -266 -860 -18 -137 -19 -938 -5 -5255 5 -1283 4 -2379 -1
-2445 -16 -225 -61 -391 -160 -590 -140 -281 -380 -510 -648 -620 -341 -139
-824 -105 -1475 105 -88 29 -347 119 -575 200 -473 168 -694 241 -906 300
-732 200 -1407 223 -1974 66 -343 -94 -732 -300 -1014 -536 -922 -774 -1356
-2103 -1105 -3387 133 -680 446 -1280 909 -1743 229 -230 429 -376 695 -511
628 -317 1335 -369 2155 -158 270 70 511 150 1050 347 555 203 793 280 1060
340 683 155 1148 47 1551 -360 268 -272 429 -638 464 -1058 3 -36 10 -1696 15
-3690 6 -2132 15 -3699 21 -3805 24 -433 93 -709 265 -1055 274 -550 707 -984
1249 -1250 234 -115 400 -173 642 -224 267 -56 627 -82 1008 -71 222 6 15964
373 19480 455 2135 49 2381 56 2529 75 1040 133 1967 802 2379 1717 103 230
168 451 208 704 19 121 22 192 26 549 6 607 71 21862 66 21915 -30 362 -83
608 -189 877 -340 865 -1059 1465 -1998 1668 -280 61 -373 67 -966 69 -300 2
-637 1 -750 0z m1255 -861 c389 -80 709 -256 996 -550 281 -286 456 -617 546
-1026 26 -121 26 -125 31 -627 7 -839 -57 -21525 -68 -21765 -14 -320 -49
-494 -150 -739 -137 -331 -346 -597 -635 -805 -227 -164 -529 -278 -795 -301
-126 -11 -645 -24 -2680 -70 -740 -17 -5442 -127 -10450 -244 -6409 -150
-9130 -210 -9190 -204 -258 27 -565 128 -757 248 -108 68 -284 203 -372 286
-270 254 -494 665 -570 1044 -50 250 -46 -19 -61 4690 -6 1984 -14 3131 -20
3195 -43 416 -167 774 -378 1090 -379 569 -909 893 -1627 997 -139 20 -666 17
-825 -5 -482 -66 -785 -149 -1485 -404 -780 -284 -1111 -382 -1430 -424 -133
-17 -382 -15 -495 5 -257 45 -448 128 -693 303 -100 72 -307 271 -394 378
-434 538 -667 1311 -614 2040 50 682 259 1199 675 1669 104 117 304 274 431
338 80 41 252 95 355 113 139 23 353 30 515 16 346 -30 656 -107 1168 -287
956 -338 1379 -460 1802 -518 824 -113 1536 58 2100 504 106 84 294 274 377
380 288 371 454 777 498 1215 6 67 6 1326 -2 3805 -12 3903 -12 3821 32 4069
39 216 174 535 303 716 259 364 590 603 980 705 84 22 197 45 252 50 57 6
1512 18 3385 30 3672 22 4318 24 4405 11 189 -28 392 -146 566 -329 146 -154
256 -343 330 -570 133 -411 133 -807 -2 -1345 -45 -180 -116 -399 -278 -861
-254 -721 -333 -980 -401 -1316 -60 -299 -74 -436 -74 -720 0 -263 12 -381 60
-598 54 -244 173 -522 311 -732 266 -403 681 -759 1169 -1003 565 -283 1285
-427 1947 -389 251 14 403 33 626 78 723 146 1355 465 1840 930 461 442 741
959 827 1529 24 162 25 526 1 710 -53 396 -151 739 -422 1470 -291 783 -401
1175 -436 1560 -24 264 13 585 97 834 116 348 315 615 542 730 143 72 152 73
527 78 817 11 6013 40 6725 38 747 -2 790 -3 885 -22z"/>
<path d="M67935 12358 c-1486 -51 -2577 -93 -2600 -99 -84 -23 -157 -138 -141
-223 8 -42 56 -86 94 -86 15 0 1217 40 2672 91 2621 90 2645 91 2690 113 62
30 110 109 110 181 -1 90 -39 116 -172 114 -51 -1 -1245 -42 -2653 -91z"/>
<path d="M65855 10444 c-2260 -79 -4126 -146 -4145 -150 -24 -4 -49 -21 -82
-54 -84 -87 -87 -207 -6 -245 30 -14 399 -3 4319 134 3710 129 4291 151 4318
165 114 59 156 243 64 285 -15 7 -87 11 -191 10 -92 -1 -2016 -66 -4277 -145z"/>
</g>
</svg>
